<?xml version="1.0" encoding="UTF-8"?>
<svg class="fill-zinc-200" width="44pt" height="44pt" version="1.1" viewBox="0 0 128 128" xmlns="http://www.w3.org/2000/svg">
 <g>
  <path d="m88.688 14.629c13.613 0 24.688 11.074 24.688 24.688v49.371c0 13.613-11.074 24.688-24.688 24.688l-49.375-0.003906c-13.613 0-24.688-11.074-24.688-24.688l0.003906-49.371c0-13.613 11.074-24.688 24.688-24.688l49.371 0.003906m0-8.2305h-49.375c-18.176 0-32.914 14.738-32.914 32.914v49.371c0 18.18 14.738 32.918 32.914 32.918h49.371c18.18 0 32.918-14.738 32.918-32.914v-49.375c0-18.176-14.738-32.914-32.914-32.914z"/>
  <path d="m47.543 39.312c0 4.5469-3.6836 8.2305-8.2305 8.2305-4.543 0-8.2266-3.6836-8.2266-8.2305 0-4.543 3.6836-8.2266 8.2266-8.2266 4.5469 0 8.2305 3.6836 8.2305 8.2266"/>
  <path d="m96.914 88.688c0 4.543-3.6836 8.2266-8.2266 8.2266-4.5469 0-8.2305-3.6836-8.2305-8.2266 0-4.5469 3.6836-8.2305 8.2305-8.2305 4.543 0 8.2266 3.6836 8.2266 8.2305"/>
  <path d="m96.914 39.312c0 4.5469-3.6836 8.2305-8.2266 8.2305-4.5469 0-8.2305-3.6836-8.2305-8.2305 0-4.543 3.6836-8.2266 8.2305-8.2266 4.543 0 8.2266 3.6836 8.2266 8.2266"/>
  <path d="m47.543 88.688c0 4.543-3.6836 8.2266-8.2305 8.2266-4.543 0-8.2266-3.6836-8.2266-8.2266 0-4.5469 3.6836-8.2305 8.2266-8.2305 4.5469 0 8.2305 3.6836 8.2305 8.2305"/>
 </g>
</svg>
