<?xml version="1.0" encoding="UTF-8"?>
<svg width="128pt" height="128pt" version="1.1" viewBox="0 0 128 128" xmlns="http://www.w3.org/2000/svg">
 <path d="m36.609 49.406-2.0469-1.1523 1.1523-2.0469 2.0469 1.1523zm-2.6875-4.0938-2.0469-1.1523-1.1562 1.918 2.0469 1.1523zm11.773 6.6562-2.0469-1.1523-1.1523 2.0469 2.0469 1.1523zm-15.617-8.9609-2.0469-1.1523-1.1523 1.9219 2.0469 1.1523zm-4.0938-2.3047-2.0469-1.1523-1.1523 2.0469 2.0469 1.1523zm15.871 9.0898-2.0469-1.1523-1.1523 2.0469 2.0469 1.1523zm19.328 11.137-2.0469-1.1523-1.1523 2.0469 2.0469 1.1523zm-3.8398-2.1758-2.0469-1.1523-1.1523 2.0469 2.0469 1.1523zm-3.9688-2.3047-2.0469-1.1523-1.1523 2.0469 2.0469 1.1523zm-3.8398-2.1758-2.0469-1.1523-1.0234 1.918 2.0469 1.1523zm15.617 49.664h-2.3047v2.3008h2.3047zm0-4.4805h-2.3047v2.3047h2.3047zm0-4.4805h-2.3047v2.3047h2.3047zm0 13.566h-2.3047v2.3047h2.3047zm0-18.047h-2.3047v2.3047h2.3047zm0-18.047h-2.3047v2.3047h2.3047zm0-4.4805h-2.3047v2.3047h2.3047zm0 8.9609h-2.3047v2.3047h2.3047zm0 9.0859h-2.3047v2.3047h2.3047zm0-4.6094h-2.3047v2.3047h2.3047zm13.441-27.133 1.1523 2.0469 2.0469-1.1523-1.1523-2.0469zm-3.9688 2.3008 1.1523 2.0469 2.0469-1.1523-1.1523-2.0469zm-7.8086 4.6094 1.1523 2.0469 2.0469-1.1523-1.1523-2.0469zm15.742-9.2148 1.1523 2.0469 2.0469-1.1523-1.2773-2.0469zm-11.902 6.7852 1.1523 2.0469 2.0469-1.1523-1.1523-2.0469zm15.617-8.9609 1.1523 2.0469 2.0469-1.1523-1.2812-2.0469zm15.742-9.0898 1.1523 2.0469 2.0469-1.1523-1.1523-2.0469zm-3.9688 2.3047 1.1523 2.0469 2.0469-1.1523-1.1523-2.0469zm-7.6797 4.6094 1.1523 2.0469 2.0469-1.1523-1.1523-2.0469zm3.8398-2.4336 1.1523 2.0469 1.9219-1.1523-1.1523-2.0469zm16.129-7.9375v53.504l-46.336 26.754-46.336-26.75v-53.508l46.336-26.75zm-45.184 75.777v1.0234l41.602-24.062-42.113-24.32h-1.2812l-42.113 24.32 41.602 24.062v-1.0234zm-45.055-72.961v48l42.113-24.32 0.64062-1.1523v-48.641l-41.605 24.066 0.89453 0.51172-1.1523 2.0469zm87.805 48v-48.125l-0.89453 0.51172-1.1523-2.0469 0.89453-0.51172-41.598-23.938v48.641l0.64062 1.1523z" fill="#fff"/>
</svg>
