<?xml version="1.0" encoding="UTF-8"?>
<svg width="128pt" height="128pt" version="1.1" viewBox="0 0 128 128" xmlns="http://www.w3.org/2000/svg">
 <path d="m91.051 22.871h-54.102c-7.7773 0-14.078 6.3047-14.078 14.078v54.102c0 7.7773 6.3047 14.078 14.078 14.078h54.102c7.7773 0 14.078-6.3047 14.078-14.078v-54.102c0-7.7773-6.3008-14.078-14.078-14.078zm-44.996 68.297c-3.9609 0-7.1758-3.2148-7.1758-7.1758 0-3.9648 3.2109-7.1758 7.1758-7.1758 3.9609 0 7.1758 3.2109 7.1758 7.1758 0 3.9609-3.2148 7.1758-7.1758 7.1758zm0-19.992c-3.9609 0-7.1758-3.2148-7.1758-7.1758s3.2109-7.1758 7.1758-7.1758c3.9609 0 7.1758 3.2148 7.1758 7.1758 0 3.9648-3.2148 7.1758-7.1758 7.1758zm0-19.992c-3.9609 0-7.1758-3.2109-7.1758-7.1758 0-3.9609 3.2109-7.1758 7.1758-7.1758 3.9609 0 7.1758 3.2148 7.1758 7.1758 0 3.9648-3.2148 7.1758-7.1758 7.1758zm35.891 39.984c-3.9648 0-7.1758-3.2148-7.1758-7.1758 0-3.9648 3.2109-7.1758 7.1758-7.1758 3.9609 0 7.1758 3.2109 7.1758 7.1758 0 3.9609-3.2109 7.1758-7.1758 7.1758zm0-19.992c-3.9648 0-7.1758-3.2148-7.1758-7.1758s3.2109-7.1758 7.1758-7.1758c3.9609 0 7.1758 3.2148 7.1758 7.1758 0 3.9648-3.2109 7.1758-7.1758 7.1758zm0-19.992c-3.9648 0-7.1758-3.2109-7.1758-7.1758 0-3.9609 3.2109-7.1758 7.1758-7.1758 3.9609 0 7.1758 3.2148 7.1758 7.1758 0 3.9648-3.2109 7.1758-7.1758 7.1758z" fill="#fff"/>
</svg>
