<?xml version="1.0" encoding="UTF-8"?>
<svg width="128pt" height="128pt" version="1.1" viewBox="0 0 128 128" xmlns="http://www.w3.org/2000/svg">
 <g fill="#fff">
  <path d="m73.043 106.02-25.32-25.32c-5.3398-5.3398-5.3398-13.996 0-19.336 5.3398-5.3359 13.996-5.3359 19.336 0l8.0586-8.0586c-9.7891-9.7891-25.664-9.7891-35.457 0-9.7891 9.7891-9.7891 25.664 0 35.457l25.32 25.32-7.4805 7.4844 23.242 0.035156v-0.015624h0.015624l-0.03125-23.234z"/>
  <path d="m88.336 39.238-25.32-25.32 7.4805-7.4844-23.238-0.035156v0.015624h-0.015624l0.03125 23.234 7.6797-7.668 25.316 25.32c5.3398 5.3398 5.3398 13.996 0 19.332-5.3398 5.3398-13.996 5.3398-19.332 0l-8.0625 8.0625c9.7891 9.7891 25.664 9.7891 35.457 0 9.793-9.793 9.793-25.664 0.003907-35.457z"/>
 </g>
</svg>
