
<svg width="128pt" height="128pt" version="1.1" viewBox="0 0 128 128" xmlns="http://www.w3.org/2000/svg">
 <g fill="#fff">
  <path d="m124.92 62.719 2.9492-28.465c0.64062-6.207-3.4648-12.695-9.3477-14.77l-27.379-9.6562c-1.5195-0.53516-3.1875-0.80469-4.9688-0.80469-4.7227 0-9.4688 1.8945-12.387 4.9453l-5.1133 5.3438c-3.6289 3.793-7.2617 10.797-8.2695 15.945l-1.5039 7.6641-3.0508-2.6211c-3.3789-2.9062-8.8398-4.7812-13.914-4.7812-1.2773 0-2.4922 0.125-3.6016 0.36719l-15.574 3.4219c-5.6016 1.2305-11.613 6.3789-13.695 11.723l-8.1523 20.945c-2.1484 5.5234-0.65234 13.23 3.4062 17.547l18.352 19.523c2.6406 2.8086 6.7422 4.4883 10.965 4.4883 2.2852 0 4.4844-0.50391 6.3594-1.4531l14.25-7.2266c4.6758-2.3711 10.441-7.7539 13.125-12.258l9.0039-15.105 13.094 3.4141c1.8867 0.49219 4.1953 0.75 6.6797 0.75 4.1797 0 8.3008-0.69922 11.312-1.918l6.6797-2.6992c5.4414-2.1914 10.176-8.4844 10.781-14.32zm-91.281 47.246c-1.4492 0-2.9102-0.26953-4.2695-0.76172 0.13281 0.011719 0.26953 0.023437 0.40625 0.023437 1.3672 0 2.6406-0.50781 3.7109-1.4258-0.085937 0.65234-0.011719 1.1992 0.24219 1.6172 0.10547 0.17578 0.27344 0.36328 0.51172 0.51562-0.20703 0.007812-0.40234 0.03125-0.60156 0.03125zm51.527-97.32c-1.668 0.53125-3.0508 1.6445-3.9492 3.1875-0.09375-0.50391-0.24609-0.9375-0.5-1.2383-0.24609-0.29297-0.56641-0.47266-0.93359-0.53906 1.6641-0.79297 3.5312-1.2773 5.3828-1.4102zm30.27 58.25c0.042968 0.78125-1.0078 1.6836-2.8047 2.4102l-6.6797 2.6992c-0.26953 0.10938-0.55859 0.21094-0.85156 0.30859l10.23-5.7852c0.054687 0.12109 0.097656 0.24219 0.10547 0.36719zm-80.922 38.043c-0.12891-0.21484-0.14453-0.55078-0.10938-0.93359l21.699-12.273c-0.19922 0.35547-0.33984 0.67578-0.40625 0.9375-0.070312 0.28125-0.0625 0.50391 0.019532 0.64844 0.023437 0.039063 0.0625 0.0625 0.097656 0.089844l-20.91 11.828c-0.16797-0.066406-0.30859-0.15625-0.39062-0.29688zm-4.7422-0.63672c-1.4609 0-2.9375-0.71875-4.1602-2.0195l-18.355-19.523c-3.0312-3.2227-4.1875-9.1992-2.5859-13.32l8.1523-20.941c0.89453-2.2969 2.5273-3.6133 4.4805-3.6133 1.3086 0 2.6367 0.59766 3.8398 1.7344l22.316 21.008c3.1953 3.0078 4.1289 8.6133 2.0742 12.492l-11.094 20.977c-1.0742 2.0391-2.7773 3.207-4.668 3.207zm-9.7539-62.445c0.34375-1.2461 1.625-2.168 3.6094-2.6055l15.574-3.4219c0.82812-0.18359 1.75-0.27344 2.7383-0.27344 4.1016 0 8.6367 1.5312 11.285 3.8086l1.6836 1.4453-0.046875 0.027344-0.03125 0.16406 0.18359-0.10547 1.0625 0.91406-1.5742 0.89062-0.03125 0.16797 1.7109-0.96875 1.0625 0.91406-3.1094 1.7578-0.03125 0.16406 3.2422-1.8359 1.7734 1.5234-0.14063 0.72266-5.5742 3.1523-0.03125 0.16406 5.5742-3.1523-0.33594 1.6992-5.5742 3.1523-0.03125 0.16406 5.5742-3.1523-0.33203 1.6992-5.5742 3.1523-0.03125 0.16406 5.5742-3.1523-0.33594 1.7031-5.5742 3.1523-0.03125 0.16406 5.5742-3.1523-0.33594 1.6992-5.5742 3.1523-0.03125 0.16797 5.5742-3.1523-0.33594 1.7031-5.5742 3.1523-0.039062 0.17188 5.5742-3.1523-0.32031 1.6289c-0.003906 0.023437-0.003906 0.046874-0.011718 0.066406l-5.5742 3.1602-0.03125 0.16406 5.5898-3.1602c-0.09375 0.53516-0.14062 1.0742-0.15234 1.6055v-0.007813l-5.7695 3.2617-0.03125 0.16797 5.793-3.2773c-0.003906 0.51172 0.035156 1.0195 0.10156 1.5195-0.003907-0.019532-0.007813-0.039063-0.011719-0.058594l-6.1719 3.4922c-0.007813 0.050781-0.019531 0.10547-0.023437 0.16016l6.2188-3.5195c0.070312 0.49609 0.16797 0.98828 0.30469 1.4727-0.011719-0.039062-0.023437-0.078124-0.03125-0.11328l-6.5352 3.6953c0 0.046875 0.003906 0.097656 0.007812 0.14453l6.5625-3.7148c0.12109 0.42969 0.26562 0.85547 0.4375 1.2656l-6.8438 3.8711c0.007813 0.042969 0.023438 0.085938 0.03125 0.12891l6.8672-3.8867c0.17578 0.40625 0.37109 0.79687 0.58984 1.1797l-7.1094 4.0234c0.011718 0.039063 0.027343 0.082032 0.039062 0.125l7.1328-4.0352c0.22266 0.37891 0.46094 0.75 0.72266 1.1016l-7.3633 4.168c0.019531 0.039062 0.039062 0.078124 0.058593 0.11328l7.3828-4.1758c0.27344 0.35547 0.57422 0.69141 0.88672 1.0117l-7.0547 3.9883c-3.3359-0.10156-6.6367-1.3242-8.6992-3.2656l-22.32-21c-1.4805-1.3945-2.1055-2.8477-1.7617-4.0898zm60.211-27.316-5.3594 30.633c-0.76953 4.4102-4.3906 10.078-8.0664 12.637l-2.7891 1.9375c-1.8477 1.2852-3.4219 1.5508-4.1523 0.66016-0.55469-0.67188-0.67969-1.9531-0.35547-3.6016l4.8555-24.773c0.86719-4.4219 4.1094-10.676 7.2266-13.934l5.1133-5.3438c1.1016-1.1523 2.1133-1.8125 2.7734-1.8125 0.22656 0 0.39453 0.078125 0.53125 0.24219 0.20312 0.23828 0.62891 1.0469 0.22266 3.3555zm15.918 59.086c-0.70703 0-1.3789-0.03125-2.0352-0.078125l16.402-9.2773 1.7812 0.50391-15.625 8.8398c-0.17578 0.007813-0.34766 0.011719-0.52344 0.011719zm-32.918 13.926-1.6797 0.94922c0.054687-0.13281 0.10938-0.26172 0.14062-0.375 0.082031-0.28906 0.085938-0.51562 0.015625-0.66797-0.070313-0.15625-0.21094-0.24219-0.42578-0.25-0.042969 0-0.10547 0.015625-0.15625 0.023438l3.5703-2.0195 0.13281-0.22266-4.2344 2.3945c-0.054688 0.023438-0.10156 0.035157-0.16016 0.0625-0.25391 0.12109-0.52734 0.29297-0.80469 0.48438l-24.488 13.852c0.042969-0.085938 0.070312-0.16797 0.11719-0.25391l1-1.8906 29.926-16.93 0.13281-0.22266-29.941 16.941 1.1406-2.1562 30.168-17.066 0.13281-0.22266-30.191 17.074 1.1406-2.1562 30.41-17.199 0.13281-0.22266-30.43 17.211 1.1406-2.1602 30.648-17.336 0.13281-0.22266-30.668 17.352 1.1406-2.1602 30.891-17.473 0.13281-0.22266-30.91 17.484 1.1406-2.1562 29.555-16.719 0.90234 0.23438-9.0781 15.227c-0.19531 0.32812-0.4375 0.67578-0.67578 1.0156zm-3.7305 3.7734c0.30078-0.30859 0.60156-0.62109 0.86719-0.94922 0.32812-0.40625 0.62109-0.81641 0.85547-1.2148 0.097656-0.16406 0.17188-0.3125 0.24219-0.45703l1.6094-0.91016c-0.66016 0.92969-1.4531 1.8828-2.3203 2.8281zm15.398-42.938c0.46094 2.5664 1.957 4.9141 4.0859 6.418-0.38672-0.023438-0.75781-0.070313-1.1641-0.070313-2.6523 0-5.4375 0.53906-7.8008 1.4414 2.0234-2.1914 3.8086-5.043 4.8789-7.7891zm17.055 17.938c0.007812-0.16016-0.078125-0.33203-0.26172-0.50781-0.16406-0.15234-0.41016-0.30469-0.70312-0.45703l7.7852-4.4062 1.7812 0.50391zm-1.0977-1.0352c-0.019531-0.011718-0.035156-0.019531-0.054687-0.03125-0.39844-0.18359-0.88281-0.35547-1.4531-0.51172-0.050781-0.015625-0.10547-0.019532-0.15625-0.03125l7.625-4.3125 1.7852 0.50391zm-1.8555-0.61328c-0.46484-0.11328-0.9375-0.22266-1.4102-0.28906-0.22656-0.03125-0.43359-0.035157-0.65234-0.054688l7.9219-4.4805 1.7852 0.50391zm-33.637 10.895v-0.019531l10.691-6.0508 1.832 0.47656-13.555 7.668c0.1875-0.27344 0.36719-0.55078 0.51562-0.82031 0.26172-0.47656 0.43359-0.90234 0.51562-1.2539zm2.375-5.1992 2.1562-0.84766-7.8789 4.457c-0.16016 0.13281-0.31641 0.27734-0.47266 0.41406l9.2031-5.207 2.0234-0.79688c0.375 0.1875 0.75781 0.36328 1.1562 0.50781l-9.7852 5.5352c-0.11719 0.03125-0.23047 0.058594-0.36328 0.11328-0.41797 0.17188-0.87109 0.43359-1.3359 0.76172-0.13672 0.097656-0.27344 0.21094-0.41016 0.32031l-3.7969 2.1484c-0.015625 0.019531-0.03125 0.039062-0.046875 0.0625-0.054688 0.066406-0.097656 0.13281-0.15234 0.19922l3.4531-1.9531c-0.14453 0.12891-0.29297 0.25391-0.4375 0.39453-0.45312 0.4375-0.88281 0.91406-1.2695 1.4062-0.28906 0.36719-0.53516 0.73828-0.75781 1.1055l-2.625 1.4844c2.1289-3.957 7.1914-8.4727 11.34-10.105zm-4.6992-0.14453 6.9062-3.9062c0.32812 0.32813 0.67188 0.64063 1.0391 0.92578l-4.5781 2.5898c-0.97266 0.26172-2.0469 0.40234-3.1641 0.40234-0.070312-0.003906-0.13672-0.011719-0.20312-0.011719zm9.2422-6.2109c-0.039063-0.22266-0.027344-0.45312 0.015625-0.6875l13.328-7.5391c0.73438-0.078124 1.4688-0.13281 2.1953-0.13281 0.22656 0 0.42578 0.03125 0.64453 0.039062l-15.91 9c-0.13281-0.21875-0.23047-0.44141-0.27344-0.67969zm2.2656-3.5078 0.86328-0.59766 5.3945-3.0508c1.3984-0.49219 2.9414-0.84375 4.5-1.0312l-12.98 7.3438c0.22656-0.87891 0.99609-1.8125 2.2227-2.6641zm18.812 5.0898c0.125 0.10938 0.29688 0.22266 0.49219 0.33203l-6.4766 3.6602-1.832-0.47656 7.5781-4.2891c-0.054688 0.074219-0.085938 0.15234-0.085938 0.23438 0.003906 0.17188 0.11328 0.35547 0.32422 0.53906zm-28.023 9.1172c-0.09375-0.20703-0.27344-0.33594-0.53516-0.37109-0.078125-0.011719-0.17578 0.007812-0.26562 0.015625l9.5625-5.4102c0.26953 0.09375 0.53906 0.1875 0.82031 0.25781l0.95313 0.25-10.496 5.9375c0.042968-0.27344 0.039062-0.50781-0.039063-0.67969zm5.7539-7.3828c0.21484 0.16406 0.44141 0.3125 0.66797 0.46094l-4.3555 1.7148c-0.125 0.046876-0.26563 0.085938-0.39453 0.12891zm2.5742-1.6016c-0.44922-0.27344-0.80469-0.58203-1.0391-0.92578l16.082-9.0938c0.78125 0.039062 1.5156 0.12891 2.2031 0.26562zm23.047-1.4219c-0.27734-0.023438-0.56641-0.066406-0.82812-0.070313-0.53906-0.015625-1.0391 0.011719-1.4609 0.070313-0.22656 0.03125-0.42578 0.078125-0.60938 0.13281l9.0898-5.1445 1.7852 0.50391zm-11.34 4.7578-1.832-0.47656 17.406-9.8477 1.7852 0.50391zm-2.0117-0.52344-1.832-0.47656 17.461-9.875 1.7812 0.50391zm-2.0078-0.52344-1.832-0.47656 17.512-9.9062 1.7852 0.50391zm-2.0078-0.52344-1.832-0.47656 17.566-9.9336 1.7852 0.50391zm-2.0078-0.52344-1.7148-0.44531c-0.039063-0.011719-0.074219-0.023438-0.11328-0.035156l17.613-9.9609 1.7812 0.50391zm-1.9961-0.53125c-0.59375-0.17578-1.1211-0.38672-1.5547-0.63281l17.312-9.793c0.22266 0.046875 0.46484 0.074219 0.67578 0.13281l1.1758 0.33203zm4.6133-9.25-3.4102 1.9297 0.79297-0.55078c0.75-0.51953 1.6445-0.98047 2.6172-1.3789zm-7.9727 4.5547c-0.53125 0.80469-0.75 1.6328-0.60937 2.4336 0.027343 0.14844 0.074218 0.29297 0.12109 0.43359-0.92969-0.95312-1.6445-2.1055-2.082-3.3633 0.44141 0.39844 1.0117 0.61719 1.6758 0.61719 0.28516-0.003907 0.58594-0.050782 0.89453-0.12109zm-8.7422 9.4141c0.36719 0 0.73047-0.019531 1.0938-0.046875-2.5352 1.6094-5.0781 3.8906-6.9375 6.2344 0.42188-2.6914-0.097656-5.6211-1.4336-7.9844 2.1172 1.1289 4.6992 1.7969 7.2773 1.7969zm-4.3438 8.0508c-0.027344 0.050781-0.0625 0.10156-0.089844 0.15234-0.26172 0.48828-0.42188 0.91016-0.49219 1.2656-0.03125 0.16406-0.039063 0.3125-0.03125 0.44531l-3.1406 1.7734 1.1406-2.1562zm-0.58594 1.9883c0.019531 0.089843 0.03125 0.18359 0.070312 0.25 0.10938 0.19531 0.30469 0.30469 0.57422 0.32422 0.26953 0.015624 0.61719-0.058594 1.0312-0.23828 0.41406-0.17969 0.86328-0.44531 1.3125-0.77344 0.45312-0.32812 0.90625-0.71484 1.3477-1.1406 0.4375-0.42578 0.85547-0.88281 1.2305-1.3594 0.097656-0.12109 0.17969-0.24609 0.26953-0.36719l13.918-7.8711 1.832 0.47656-26.004 14.711 1.1406-2.1562zm21.766-10.648 1.832 0.47656-29.27 16.555 1.1406-2.1602zm7.4805-0.91406 6.4336-3.6406c0.09375 0.046875 0.17969 0.097656 0.28516 0.14453 0.36719 0.16406 0.8125 0.32031 1.3203 0.45703l-6.207 3.5156zm8.2148-2.9883c0.53516 0.14062 1.0938 0.25781 1.6367 0.33594 0.13281 0.019531 0.25391 0.019531 0.38281 0.035156l-6.3945 3.6172-1.832-0.47656zm2.2461 0.39062c0.35547 0.035157 0.71875 0.082032 1.0508 0.09375 0.52734 0.015626 1.0195-0.003906 1.4414-0.058593 0.066406-0.007813 0.11719-0.023438 0.17969-0.035157l-7.2812 4.1211-1.832-0.47656zm3.0586-0.070312c0.17969-0.046875 0.33984-0.10156 0.47266-0.16797 0.17188-0.085937 0.26953-0.1875 0.33594-0.28906l8.8477-5.0039 1.7852 0.50391-17.098 9.6719-1.832-0.47656zm11.613-4.9102 1.7852 0.50391-17.047 9.6406-1.832-0.47656zm1.957 0.55469 1.7812 0.50391-16.992 9.6133-1.832-0.47656zm1.957 0.55469 1.7852 0.50391-16.887 9.5547c-0.34766-0.066406-0.69141-0.13672-1.0078-0.21875l-0.875-0.23047zm1.957 0.55078 1.7812 0.50391-16.453 9.3086c-0.77344-0.058594-1.5195-0.14453-2.2031-0.26562zm3.9062 1.1094c0.61719 0.17969 1.1523 0.38672 1.5898 0.61328l-14.074 7.9609c-0.99219 0.11328-2.0156 0.18359-3.043 0.20703zm-25.074-55.621c0.80078 0 1.6133 0.14453 2.4141 0.42578l27.371 9.6523c4.1328 1.457 7.1289 6.1914 6.6797 10.551l-2.9453 28.465c-0.35938 3.4688-2.9375 5.8945-6.2695 5.8945-0.66016 0-1.332-0.097656-2-0.28516l-30.613-8.6523c-4.1875-1.1836-6.9883-5.6367-6.2383-9.9258l5.3594-30.633c0.56641-3.2852 3.082-5.4922 6.2422-5.4922zm-52.336 92.773 23.824-13.477c-0.25391 0.21094-0.50781 0.43359-0.75391 0.67578-0.39062 0.37891-0.76172 0.78906-1.0977 1.207-0.30469 0.375-0.56641 0.75391-0.79297 1.1211l-21.812 12.34c0.078125-0.52344 0.29297-1.1562 0.63281-1.8672zm20.883-8.4961c0.070312 0.027344 0.14453 0.042969 0.23828 0.042969 0.21875-0.007813 0.50781-0.09375 0.85547-0.26562 0.34766-0.17578 0.72656-0.41797 1.1133-0.71094 0.33984-0.26172 0.6875-0.56641 1.0234-0.89062l1.3125-0.74219c-1.3945 1.4766-2.9727 2.8906-4.5469 4.0859l-8.1992 4.6367-9.5586 4.8477c-1.3281 0.67578-2.4375 0.94531-3.0977 0.80078zm-0.95703 2.1992c-0.875 0.60938-1.7422 1.1602-2.5547 1.5742l-2.1797 1.1055zm49.539-23.188c-1.2578 0.37891-2.6875 0.67578-4.207 0.86719l13.883-7.8516c0.51562 0.28125 0.875 0.58984 1.0703 0.90625zm-85.391-30.887c-0.24609 0.89844-0.11328 1.8555 0.35156 2.8125-0.71484-0.29688-1.4414-0.46484-2.1719-0.46484-1.0352 0-1.9961 0.32812-2.8438 0.90625 1.4531-1.8203 3.3672-3.4531 5.3945-4.5977-0.34375 0.40625-0.59375 0.85156-0.73047 1.3438zm96.082 23.461c1.9453-0.14453 3.625-1.0156 4.8125-2.3984-0.92578 1.8203-2.25 3.5273-3.7734 4.8672 0.078125-0.22656 0.125-0.45703 0.11328-0.69141-0.039063-0.66016-0.44141-1.2578-1.1523-1.7773z"/>
  <path d="m45.301 52.488c-0.40234 0.11328-0.69922 0.29688-0.89453 0.53906-0.19531 0.23828-0.28516 0.53516-0.27344 0.86328 0.011719 0.33203 0.12891 0.69531 0.35156 1.0742s0.55078 0.77734 0.98047 1.168c0.43359 0.39063 0.92969 0.73828 1.4531 1.0352 0.52734 0.29297 1.082 0.53516 1.6328 0.71094 0.55078 0.17578 1.0938 0.28516 1.6055 0.32031 0.50781 0.035156 0.97266-0.003907 1.3711-0.12891 0.39844-0.125 0.68359-0.32031 0.86719-0.57031 0.17969-0.24609 0.25781-0.54688 0.23047-0.87891-0.027344-0.33203-0.15625-0.69141-0.38672-1.0664s-0.55859-0.76172-0.98828-1.1406c-0.42578-0.37891-0.91016-0.71875-1.4219-1.0039s-1.0508-0.51953-1.5859-0.69531c-0.53516-0.17188-1.0703-0.28516-1.5703-0.32812-0.50391-0.042969-0.96875-0.011719-1.3711 0.10156z"/>
  <path d="m36.859 73.926c-0.375 0.27344-0.69531 0.66016-0.93359 1.1562-0.24219 0.49609-0.37891 1.0508-0.42188 1.6328-0.042968 0.58203 0.003906 1.1914 0.13672 1.793 0.13281 0.60156 0.35156 1.1953 0.64844 1.75 0.29688 0.55469 0.67188 1.0664 1.1172 1.5 0.44531 0.4375 0.92188 0.75391 1.3984 0.95703 0.48047 0.20312 0.96094 0.28906 1.418 0.26172 0.46094-0.03125 0.89453-0.17578 1.2773-0.4375 0.38672-0.26172 0.71875-0.64062 0.96875-1.1328 0.25391-0.49219 0.40234-1.0547 0.45312-1.6484s0.007813-1.2188-0.12891-1.8359-0.35938-1.2305-0.66797-1.7969c-0.30469-0.56641-0.69141-1.0859-1.1523-1.5234-0.45703-0.4375-0.94531-0.75-1.4297-0.94531-0.48438-0.19141-0.96875-0.26562-1.4297-0.21875-0.45312 0.054688-0.88281 0.21484-1.2539 0.48828z"/>
  <path d="m17.176 53.387c-0.40234 0.074219-0.77734 0.26172-1.1016 0.55469-0.32422 0.29297-0.59766 0.69141-0.79688 1.1914-0.19922 0.5-0.30859 1.0508-0.33203 1.625-0.023437 0.57422 0.035157 1.168 0.16797 1.7461 0.13281 0.57812 0.34375 1.1484 0.61719 1.668 0.27734 0.52344 0.62109 0.99609 1.0234 1.3945 0.40625 0.39844 0.83203 0.67578 1.2578 0.84375 0.42578 0.16406 0.85547 0.21484 1.2617 0.15625 0.40234-0.058594 0.78516-0.23438 1.1172-0.51562s0.61719-0.67188 0.82812-1.168c0.21094-0.5 0.32812-1.0586 0.35938-1.6406 0.03125-0.58203-0.023437-1.1875-0.16016-1.7852-0.13672-0.59375-0.34766-1.1758-0.63281-1.707s-0.64062-1.0156-1.0547-1.4102c-0.41406-0.39844-0.85547-0.67188-1.2891-0.82422-0.42969-0.16797-0.85938-0.20703-1.2656-0.12891z"/>
  <path d="m21.168 75.125c-0.32812 0.25781-0.60938 0.61719-0.8125 1.0859-0.20312 0.46484-0.32031 0.98828-0.34766 1.5391-0.027343 0.55078 0.027344 1.125 0.15625 1.6953 0.12891 0.56641 0.33984 1.1289 0.61328 1.6523 0.27734 0.52344 0.62109 1.0078 1.0234 1.418 0.40625 0.41406 0.83594 0.71484 1.2656 0.90625 0.42969 0.19141 0.86328 0.27344 1.2695 0.24609 0.41016-0.027344 0.79297-0.16406 1.1328-0.41016 0.33984-0.24609 0.62891-0.60156 0.84375-1.0625 0.21484-0.46484 0.33984-0.99219 0.375-1.5508 0.035156-0.55859-0.019531-1.1484-0.14844-1.7305-0.13281-0.58203-0.34375-1.1602-0.62891-1.6953-0.28125-0.53516-0.63672-1.0273-1.0547-1.4414-0.41797-0.41406-0.85547-0.71094-1.293-0.89453-0.4375-0.18359-0.87109-0.25391-1.2773-0.21094-0.40625 0.046875-0.78906 0.19922-1.1172 0.45312z"/>
  <path d="m28.031 104.06c0.43359 0.21875 0.86719 0.32812 1.2812 0.33594 0.41406 0.003906 0.80078-0.097657 1.1445-0.30859 0.34375-0.21094 0.63672-0.53516 0.85547-0.96094 0.22266-0.42969 0.34766-0.93359 0.38672-1.4688 0.039062-0.53516-0.011719-1.1055-0.14062-1.6797-0.12891-0.57031-0.33984-1.1406-0.62109-1.6797-0.28125-0.53516-0.63672-1.0391-1.0547-1.4688-0.41797-0.42969-0.85937-0.75-1.3008-0.96094-0.4375-0.21094-0.875-0.30859-1.2852-0.30078-0.41016 0.007813-0.79297 0.125-1.1289 0.34766-0.33594 0.22266-0.61719 0.55078-0.82812 0.98438-0.20703 0.43359-0.32812 0.92969-0.35938 1.457s0.019531 1.0859 0.14844 1.6445 0.33594 1.1133 0.60938 1.6367c0.27344 0.52344 0.61719 1.0195 1.0234 1.4453 0.40625 0.43359 0.83984 0.75781 1.2695 0.97656z"/>
  <path d="m10.141 84.293c0.36719-0.027344 0.71094-0.15234 1.0078-0.38672 0.30078-0.23438 0.55078-0.56641 0.73828-1.0039s0.28516-0.94141 0.30859-1.4688c0.023438-0.52734-0.035156-1.0859-0.16406-1.6367-0.12891-0.55469-0.33203-1.0938-0.59375-1.6016-0.26562-0.50781-0.58984-0.97266-0.97266-1.3633-0.38281-0.39453-0.78125-0.67578-1.1758-0.85156-0.39453-0.17578-0.78516-0.24219-1.1523-0.20312-0.36328 0.039062-0.70312 0.17969-0.99609 0.41797-0.28906 0.24219-0.53516 0.58203-0.71094 1.0234-0.17578 0.4375-0.26563 0.93359-0.28516 1.457-0.015625 0.51953 0.042969 1.0625 0.17188 1.6055 0.12891 0.53906 0.32422 1.0703 0.57812 1.5664 0.25781 0.49609 0.57422 0.95312 0.94531 1.3438 0.37109 0.39453 0.76562 0.67969 1.1523 0.86328 0.39453 0.18359 0.78125 0.26172 1.1484 0.23828z"/>
  <path d="m72.941 45.918c-0.23438 0.1875-0.48047 0.49219-0.72266 0.87891-0.24219 0.38281-0.48047 0.85156-0.70312 1.3672-0.22266 0.51563-0.42969 1.0859-0.60938 1.6758s-0.33203 1.2031-0.44141 1.8125c-0.11328 0.60938-0.17188 1.1562-0.18359 1.6211-0.011719 0.46484 0.023438 0.85547 0.10156 1.1445 0.078126 0.29297 0.19922 0.48438 0.35938 0.5625 0.16016 0.078125 0.35937 0.039062 0.59766-0.13281 0.23828-0.17578 0.48438-0.46875 0.73047-0.85156 0.25-0.38281 0.49609-0.85547 0.72656-1.3867s0.44922-1.1172 0.63281-1.7305c0.1875-0.61328 0.33984-1.2461 0.45312-1.8711 0.11328-0.625 0.16797-1.1797 0.17578-1.6484 0.007812-0.46875-0.035156-0.84766-0.125-1.125-0.085938-0.27734-0.21484-0.45312-0.38281-0.51172-0.16797-0.054687-0.37109 0.003906-0.60938 0.19531z"/>
  <path d="m65.477 36.82c0.12891 0.03125 0.29297-0.039062 0.48828-0.22266 0.19531-0.1875 0.40234-0.47266 0.60938-0.82812 0.20703-0.35938 0.41406-0.78906 0.61328-1.2578 0.19531-0.47266 0.38281-0.99219 0.54297-1.5195 0.16016-0.53125 0.29688-1.0742 0.39844-1.6016 0.10156-0.52734 0.15625-0.98828 0.17188-1.3711 0.011719-0.38281-0.015625-0.68359-0.082031-0.89453s-0.16797-0.33203-0.30078-0.34766c-0.13281-0.019532-0.30078 0.066406-0.49609 0.26562-0.19141 0.19531-0.40234 0.48828-0.60547 0.84766-0.20312 0.35547-0.40625 0.78125-0.59375 1.2461-0.19141 0.46094-0.37109 0.96094-0.52734 1.4766s-0.28906 1.043-0.39062 1.5586c-0.10156 0.51562-0.15625 0.96875-0.17578 1.3516-0.019531 0.38281 0.003906 0.69141 0.0625 0.91016 0.0625 0.21875 0.15625 0.35547 0.28516 0.38672z"/>
  <path d="m91.117 38.992c0.29687-0.44922 0.50391-0.98438 0.59766-1.582 0.089844-0.59766 0.058594-1.2031-0.078125-1.7891-0.13672-0.58594-0.38281-1.1484-0.71094-1.6641-0.32812-0.51172-0.73828-0.97656-1.2188-1.3594-0.48047-0.38672-1.0273-0.6875-1.625-0.88281-0.59766-0.19531-1.1836-0.25781-1.7383-0.21094s-1.0781 0.21094-1.5352 0.47656c-0.46094 0.26562-0.85938 0.62891-1.168 1.0742-0.30859 0.44922-0.52734 0.98437-0.62891 1.5859-0.10156 0.60547-0.074219 1.2188 0.0625 1.8125 0.13672 0.59766 0.38281 1.1719 0.71484 1.6992 0.33594 0.52344 0.75781 0.99609 1.2461 1.3828 0.49219 0.39062 1.0469 0.69141 1.6523 0.87891s1.1992 0.24609 1.7578 0.1875c0.55859-0.058593 1.0742-0.23437 1.5273-0.50781 0.45703-0.27734 0.84375-0.64844 1.1445-1.1016z"/>
  <path d="m93.312 24.688c0.28906-0.42578 0.49219-0.93359 0.57812-1.5078 0.085937-0.57031 0.054687-1.1562-0.082031-1.7227-0.13672-0.56641-0.375-1.1133-0.69531-1.6172-0.32031-0.50391-0.72266-0.96094-1.1953-1.3398-0.46875-0.38281-1.0039-0.6875-1.582-0.88672-0.58203-0.20312-1.1562-0.27734-1.6953-0.24609-0.53906 0.035156-1.0469 0.17969-1.4922 0.41797-0.44922 0.24219-0.83203 0.58203-1.1328 1.0039-0.29688 0.42188-0.50781 0.92969-0.60938 1.5078-0.097656 0.57812-0.066406 1.168 0.066406 1.7422 0.13281 0.57813 0.375 1.1367 0.70312 1.6484 0.32422 0.51172 0.73828 0.97656 1.2188 1.3594 0.47656 0.38672 1.0195 0.69141 1.6133 0.88672 0.58984 0.19531 1.168 0.26562 1.7109 0.22266s1.0469-0.19531 1.4844-0.44922c0.44141-0.25 0.82031-0.59375 1.1094-1.0195z"/>
  <path d="m87.645 55.129c0.46875-0.29688 0.86719-0.69531 1.1758-1.1758 0.30859-0.48047 0.52344-1.0391 0.61719-1.668 0.097656-0.625 0.0625-1.2539-0.078125-1.8633-0.14062-0.60547-0.38672-1.1875-0.72266-1.7148-0.33594-0.52734-0.75781-0.99609-1.25-1.3867-0.49219-0.38672-1.0508-0.6875-1.6641-0.875-0.61328-0.1875-1.2188-0.23828-1.7852-0.17187-0.57031 0.066406-1.1055 0.25391-1.5781 0.53906-0.47266 0.28906-0.88281 0.67578-1.1992 1.1523-0.32031 0.47656-0.54688 1.0391-0.64844 1.668-0.10547 0.63281-0.082031 1.2734 0.058593 1.8906 0.13672 0.61719 0.38672 1.2109 0.73047 1.7461 0.33984 0.53516 0.77344 1.0195 1.2773 1.4062 0.5 0.39062 1.0742 0.69141 1.6992 0.87109 0.62109 0.17969 1.2305 0.22266 1.8047 0.14453 0.5625-0.070312 1.0938-0.26562 1.5625-0.5625z"/>
  <path d="m117.09 48.605c0.40625-0.26953 0.74609-0.63672 1.0078-1.082 0.25781-0.44531 0.42969-0.96484 0.49609-1.5469 0.0625-0.58203 0.015625-1.1719-0.13281-1.7383-0.14453-0.56641-0.38672-1.1133-0.70312-1.6094-0.31641-0.49219-0.71094-0.9375-1.1602-1.3047-0.44922-0.36719-0.96094-0.65234-1.5117-0.83203-0.55078-0.17969-1.0938-0.23438-1.5977-0.17578-0.50391 0.054688-0.97266 0.22266-1.3867 0.48828-0.41016 0.26562-0.76562 0.62109-1.0312 1.0625-0.26562 0.44141-0.44922 0.96094-0.52344 1.5469-0.070312 0.58594-0.027343 1.1836 0.11719 1.7617 0.14453 0.57422 0.38672 1.1328 0.70703 1.6328 0.32422 0.50391 0.72266 0.95703 1.1836 1.3242 0.46094 0.37109 0.98047 0.65625 1.5391 0.83203 0.55859 0.17578 1.1016 0.21875 1.6094 0.15234 0.51172-0.0625 0.98047-0.23828 1.3867-0.51172z"/>
  <path d="m112.39 31.133c0.14453 0.55859 0.38281 1.0977 0.69531 1.5898 0.31641 0.49219 0.70703 0.9375 1.1562 1.3047 0.44922 0.36719 0.95703 0.65625 1.5039 0.83984 0.54688 0.18359 1.0781 0.24219 1.5703 0.1875 0.49609-0.050782 0.94922-0.20703 1.3477-0.46094 0.39453-0.25 0.72656-0.59375 0.98047-1.0156 0.25-0.41797 0.41797-0.91406 0.48047-1.4727 0.0625-0.55859 0.011719-1.125-0.12891-1.6758-0.14453-0.54688-0.37891-1.0781-0.6875-1.5625-0.30859-0.48438-0.69531-0.92188-1.1367-1.2852s-0.94141-0.65234-1.4766-0.83984c-0.53906-0.1875-1.0664-0.25391-1.5586-0.21094-0.49219 0.039062-0.94922 0.1875-1.3516 0.42969-0.40234 0.24219-0.74219 0.57812-1.0039 0.99609s-0.4375 0.91406-0.50781 1.4766c-0.066407 0.56641-0.023438 1.1406 0.11719 1.6992z"/>
  <path d="m114.04 63.809c0.51953-0.082032 1-0.28125 1.4141-0.57422 0.41406-0.29297 0.76953-0.6875 1.0352-1.1562s0.44531-1.0156 0.50781-1.625c0.066406-0.60938 0.019531-1.2227-0.12891-1.8086-0.14453-0.58594-0.39453-1.1445-0.71484-1.6523-0.32422-0.50781-0.72266-0.95703-1.1875-1.3242-0.46094-0.36719-0.98438-0.65234-1.5469-0.82422-0.56641-0.17188-1.1172-0.21094-1.6367-0.13672-0.51562 0.074219-1 0.26172-1.4219 0.54688s-0.78516 0.66797-1.0586 1.1367c-0.27344 0.46484-0.46094 1.0156-0.53906 1.625-0.074218 0.61328-0.03125 1.2344 0.11328 1.832 0.14453 0.59766 0.39453 1.168 0.72266 1.6836s0.73828 0.97266 1.207 1.3477c0.47266 0.37109 1.0039 0.65625 1.5742 0.82031 0.58203 0.16016 1.1406 0.19531 1.6602 0.10938z"/>
  <path d="m53.73 50.598 4.7734-2.7031-0.10547-0.085937-4.6367 2.6211z"/>
 </g>
</svg>
