<?xml version="1.0" encoding="UTF-8"?>
<svg width="128pt" height="128pt" version="1.1" viewBox="0 0 128 128" xmlns="http://www.w3.org/2000/svg">
 <g fill="#fff">
  <path d="m53.504 83.84c2.9453 2.5586 7.5508 2.1758 10.113-0.76953l0.12891-0.25781 24.32-28.543c2.0469-2.4336 1.9219-6.0156-0.25781-8.1914-2.3047-2.4336-6.1445-2.4336-8.5742 0l-21.25 20.992-9.0898-8.3203c-2.1758-2.0469-5.5039-2.1758-7.9375-0.25781-2.6875 2.0469-3.0703 5.8867-1.0234 8.5742l12.547 15.75c0.25391 0.25391 0.64062 0.64062 1.0234 1.0234z"/>
  <path d="m105.09 90.496c-6.1445 8.4492-14.977 14.848-24.574 17.793-9.6016 3.0703-20.223 2.6875-29.441-0.51172-9.2148-3.3281-17.281-9.4727-22.398-17.406-5.375-7.8086-7.6797-17.281-7.2969-26.496v-0.76953c-0.25781-4.9922-4.4805-8.832-9.4727-8.5742s-8.832 4.4805-8.5742 9.4727c0.50781 12.797 5.1172 25.598 13.18 35.324 7.9375 9.8555 19.07 16.895 31.105 19.84 12.031 2.9453 24.703 2.0469 35.84-2.6875 11.137-4.6094 20.48-12.93 26.367-22.91 0.76953-1.2812 0.38281-2.9453-0.76953-3.8398-1.2773-0.76953-3.0703-0.51562-3.9648 0.76562z"/>
  <path d="m111.36 28.543c-7.9336-9.8555-19.07-16.766-30.977-19.84-12.031-2.8164-24.703-2.0469-35.711 2.8164-11.008 4.6094-20.223 12.801-26.113 22.785-0.64062 1.0234-0.38281 2.4336 0.64062 3.1992 1.0234 0.76953 2.5586 0.51172 3.3281-0.51172 6.2734-8.5742 15.105-14.977 24.961-17.922 9.7266-3.0703 20.352-2.6875 29.566 0.64063 9.2148 3.3281 17.281 9.6016 22.398 17.664 5.375 7.9375 7.6797 17.406 7.168 26.625v0.89453c0.25781 4.9922 4.4805 8.832 9.4727 8.5742s8.832-4.4805 8.5742-9.4727c-0.50781-13.051-5.2422-25.723-13.309-35.453z"/>
 </g>
</svg>
