<?xml version="1.0" encoding="UTF-8"?>
<svg width="128pt" height="128pt" version="1.1" viewBox="0 0 128 128" xmlns="http://www.w3.org/2000/svg">
 <g fill="#fff">
  <path d="m113.66 58.113c-1.0234-3.5859-4.8633-5.6328-8.4492-4.4805-3.5859 1.0234-5.6328 4.8633-4.4805 8.4492 1.0234 3.5859 1.6641 7.2969 1.6641 11.008 0 21.121-17.152 38.273-38.273 38.273-21.117-0.003906-38.398-17.285-38.398-38.402 0-21.121 17.152-38.273 38.273-38.273h22.273l-6.5273 6.5273c-2.6875 2.6875-2.6875 6.9102 0 9.6016 1.2812 1.2812 3.0703 1.9219 4.7344 1.9219 1.793 0 3.457-0.64062 4.7344-1.9219l18.047-18.047c1.2812-1.2812 1.9219-2.9453 1.9219-4.7344 0-1.793-0.76953-3.457-1.9219-4.7344l-17.918-18.18c-2.6875-2.5625-6.9102-2.5625-9.6016 0-2.6875 2.6875-2.6875 6.9102 0 9.6016l6.5273 6.5273-22.27-0.003906c-28.543 0-51.84 23.168-51.84 51.715 0 28.543 23.297 51.84 51.84 51.84s51.84-23.297 51.84-51.84c0-4.9922-0.76953-10.113-2.1758-14.848z"/>
  <path d="m79.105 72.961c0 8.3398-6.7656 15.102-15.105 15.102s-15.105-6.7617-15.105-15.102c0-8.3438 6.7656-15.105 15.105-15.105s15.105 6.7617 15.105 15.105"/>
 </g>
</svg>
