<?xml version="1.0" encoding="UTF-8"?>
<svg width="128pt" height="128pt" version="1.1" viewBox="0 0 128 128" xmlns="http://www.w3.org/2000/svg">
 <path d="m39.988 11.316c-0.47656-0.83594-0.5625-1.8359-0.23047-2.7383 0.32813-0.89844 1.043-1.6094 1.9453-1.9336l0.96094-0.34375v-0.003906c13.793-4.9727 28.891-4.9727 42.688 0l0.96094 0.34375-0.003906 0.003906c0.90625 0.32422 1.6172 1.0352 1.9453 1.9336 0.33203 0.90234 0.25 1.9023-0.22656 2.7383l-10.238 17.844h-0.003906c-8.7188 4.3945-19.035 4.2578-27.633-0.37109zm-11.828 107.62c11.16 5.1211 22.309 6.5039 35.84 6.5039s24.691-1.3828 35.84-6.5039c4.3008-2 7.9375-5.1875 10.484-9.1914 2.543-4 3.8906-8.6445 3.8789-13.387 0-33.562-16.551-50.637-29.043-59.637-6.3008 3.8555-13.543 5.8984-20.93 5.9023-0.84375 0-1.6914 0-2.5586-0.089844-0.38672 8.832 1.4023 17.621 5.207 25.598 1.2344 2.5469 0.17188 5.6094-2.375 6.8438-2.543 1.2344-5.6055 0.17188-6.8398-2.375-2.8789-5.9453-4.7812-12.316-5.6328-18.867-1.793 2.0117-3.4258 4.1602-4.8906 6.4258-1.5117 2.3906-4.6758 3.1016-7.0625 1.5859-2.3906-1.5117-3.1016-4.6758-1.5898-7.0664 3.4297-5.375 7.6289-10.219 12.469-14.371-2.7695-0.98828-5.4219-2.2773-7.9102-3.8398-12.52 8.9609-29.312 26.035-29.262 59.789-0.03125 4.7578 1.3086 9.4297 3.8555 13.449 2.5508 4.0234 6.2031 7.2266 10.52 9.2305z" fill="#fff"/>
</svg>
