<?xml version="1.0" encoding="UTF-8"?>
<svg width="128pt" height="128pt" version="1.1" viewBox="0 0 128 128" xmlns="http://www.w3.org/2000/svg">
 <g fill="#fff">
  <path d="m94.719 41.215c-0.64062-16.258-13.312-29.441-29.441-30.719-9.0898-0.76953-18.047 2.3047-24.574 8.4492-6.3984 6.0156-9.9844 14.207-9.9844 23.039 0 4.2227 3.457 7.6797 7.6797 7.6797 4.2227 0 7.6797-3.457 7.6797-7.6797 0-4.4805 1.793-8.7031 5.1211-11.777 3.457-3.1992 8.0625-4.7344 12.93-4.3516 8.3203 0.64062 14.977 7.6797 15.23 16 0.25781 6.2734-2.9453 11.777-8.4492 14.719-9.7266 5.25-15.871 15.617-15.871 27.012 0 4.2227 3.457 7.6797 7.6797 7.6797s7.6797-3.457 7.6797-7.6797c0-5.7617 2.9453-11.008 7.8086-13.566 10.625-5.7617 16.898-16.773 16.512-28.805z"/>
  <path d="m74.238 106.88c0 5.6562-4.582 10.242-10.238 10.242s-10.238-4.5859-10.238-10.242 4.582-10.238 10.238-10.238 10.238 4.582 10.238 10.238"/>
 </g>
</svg>
